HIERARCHY
ROOT Hips
{
  OFFSET -107.499 94.9678 -24.3457
  CHANNELS 6 Xposition Yposition Zposition Zrotation Xrotation Yrotation
  JOINT LeftHip
  {
    OFFSET 7.9576 0 0
    CHANNELS 6 Xposition Yposition Zposition Zrotation Xrotation Yrotation
    JOINT LeftKnee
    {
      OFFSET 0 -42.8504 0
      CHANNELS 6 Xposition Yposition Zposition Zrotation Xrotation Yrotation
      JOINT LeftAnkle
      {
        OFFSET 0 -41.644 0
        CHANNELS 6 Xposition Yposition Zposition Zrotation Xrotation Yrotation
        End Site
        {
          OFFSET 0 -7.23839 0
        }
      }
    }
  }
  JOINT RightHip
  {
    OFFSET -7.9576 0 0
    CHANNELS 6 Xposition Yposition Zposition Zrotation Xrotation Yrotation
    JOINT RightKnee
    {
      OFFSET 0 -42.8504 0
      CHANNELS 6 Xposition Yposition Zposition Zrotation Xrotation Yrotation
      JOINT RightAnkle
      {
        OFFSET 0 -41.644 0
        CHANNELS 6 Xposition Yposition Zposition Zrotation Xrotation Yrotation
        End Site
        {
          OFFSET 0 -7.23839 0
        }
      }
    }
  }
  JOINT Chest
  {
    OFFSET 0 10.6024 0
    CHANNELS 6 Xposition Yposition Zposition Zrotation Xrotation Yrotation
    JOINT Chest2
    {
      OFFSET 0 15.2424 0
      CHANNELS 6 Xposition Yposition Zposition Zrotation Xrotation Yrotation
      JOINT LeftCollar
      {
        OFFSET 2.4592 9.7208 4.0832
        CHANNELS 6 Xposition Yposition Zposition Zrotation Xrotation Yrotation
        JOINT LeftShoulder
        {
          OFFSET 13.4792 0 0
          CHANNELS 6 Xposition Yposition Zposition Zrotation Xrotation Yrotation
          JOINT LeftElbow
          {
            OFFSET 0 -28.0256 0
            CHANNELS 6 Xposition Yposition Zposition Zrotation Xrotation Yrotation
            JOINT LeftWrist
            {
              OFFSET 0 -22.7824 0
              CHANNELS 6 Xposition Yposition Zposition Zrotation Xrotation Yrotation
              End Site
              {
                OFFSET 0 -17.0984 0
              }
            }
          }
        }
      }
      JOINT RightCollar
      {
        OFFSET -2.4592 9.7208 4.0832
        CHANNELS 6 Xposition Yposition Zposition Zrotation Xrotation Yrotation
        JOINT RightShoulder
        {
          OFFSET -14.0592 0 0
          CHANNELS 6 Xposition Yposition Zposition Zrotation Xrotation Yrotation
          JOINT RightElbow
          {
            OFFSET 0 -25.7056 0
            CHANNELS 6 Xposition Yposition Zposition Zrotation Xrotation Yrotation
            JOINT RightWrist
            {
              OFFSET 0 -22.7824 0
              CHANNELS 6 Xposition Yposition Zposition Zrotation Xrotation Yrotation
              End Site
              {
                OFFSET 0 -16.5648 0
              }
            }
          }
        }
      }
      JOINT Neck
      {
        OFFSET 0 9.396 0
        CHANNELS 6 Xposition Yposition Zposition Zrotation Xrotation Yrotation
        JOINT Head
        {
          OFFSET 0 12.0408 0
          CHANNELS 6 Xposition Yposition Zposition Zrotation Xrotation Yrotation
          End Site
          {
            OFFSET 0 9.60482 0
          }
        }
      }
    }
  }
}
MOTION
Frames:	4
Frame Time:	0.00833333
-0.258292 93.8171 -5.80201 0.388425 -0.395212 1.28457 7.9576 0 2.06057e-015 -2.33453 -0.740193 1.53229 0 -42.8504 5.15143e-016 5.84019 18.2104 -9.33335 -1.03029e-015 -41.644 0 -0.741099 -18.3345 -0.073332 -7.9576 -1.64846e-014 0 -3.60817 2.05849 0.0198401 2.06057e-015 -42.8504 -1.03029e-015 1.73598 12.8057 3.48658 0 -41.644 0 -0.985592 -14.6855 -2.01638 0 10.6024 1.03029e-015 1.87334 -7.77828 0.436558 0 15.2424 -1.03029e-015 -0.732608 -5.74754 0.271793 2.4592 9.7208 4.0832 28.8367 -1.34401 -3.21895 13.4792 1.64846e-014 0 56.3495 2.23801 2.1791 -3.29692e-014 -28.0256 -4.12115e-015 0.386411 -1.57229e-006 22.9919 1.64846e-014 -22.7824 0 8.50777 -1.20465 0.218878 -2.4592 9.7208 4.0832 -28.9977 -2.13386 5.93517 -14.0592 1.64846e-014 0 -63.8659 -1.3231 -46.9955 0 -25.7056 0 -12.4871 -9.33243e-006 35.3734 0 -22.7824 -1.64846e-014 -0.014898 -6.11447 -0.00473107 2.57572e-016 9.396 4.12115e-015 -0.646987 49.8606 -0.0518955 -2.57572e-016 12.0408 1.64846e-014 -1.73259 -24.3434 -0.52378 
-0.264394 93.8152 -5.78037 0.388273 -0.388381 1.28468 7.9576 -1.64846e-014 0 -2.33339 -0.729 1.54723 0 -42.8504 -5.15143e-016 5.85098 18.2019 -9.34808 -1.03029e-015 -41.644 -4.12115e-015 -0.748677 -18.3437 -0.0746185 -7.9576 0 0 -3.60703 2.07157 -0.0155722 0 -42.8504 1.03029e-015 1.73519 12.7963 3.53245 2.06057e-015 -41.644 0 -0.991895 -14.693 -2.03016 -6.43929e-017 10.6024 -1.03029e-015 1.87674 -7.79621 0.44196 0 15.2424 2.06057e-015 -0.736044 -5.7585 0.276896 2.4592 9.7208 4.0832 28.8472 -1.34445 -3.21944 13.4792 1.64846e-014 4.12115e-015 56.351 2.2398 2.1898 0 -28.0256 -4.12115e-015 0.398837 -1.57229e-006 22.9801 -1.64846e-014 -22.7824 0 8.54976 -1.20387 0.219263 -2.4592 9.7208 4.0832 -29.0015 -2.13321 5.93186 -14.0592 1.64846e-014 -4.12115e-015 -63.8527 -1.30711 -46.9899 0 -25.7056 1.64846e-014 -12.4807 -9.33248e-006 35.3597 -1.64846e-014 -22.7824 0 -0.042815 -6.1138 -0.00622304 -5.15143e-016 9.396 0 -0.621929 49.8826 -0.0650484 0 12.0408 0 -1.74512 -24.3922 -0.520377 
-0.270525 93.8134 -5.75875 0.388124 -0.381815 1.28439 7.9576 0 0 -2.33251 -0.717471 1.56396 0 -42.8504 1.03029e-015 5.86307 18.1932 -9.3643 0 -41.644 4.12115e-015 -0.75691 -18.3532 -0.0760122 -7.9576 1.64846e-014 0 -3.60618 2.08503 -0.0530126 -2.06057e-015 -42.8504 1.03029e-015 1.7348 12.7867 3.58112 2.06057e-015 -41.644 -4.12115e-015 -0.998504 -14.7003 -2.04457 0 10.6024 0 1.88106 -7.81368 0.44771 -1.03029e-015 15.2424 -2.06057e-015 -0.740628 -5.7696 0.282386 2.4592 9.7208 4.0832 28.8584 -1.34488 -3.21979 13.4792 1.64846e-014 0 56.352 2.24112 2.20124 0 -28.0256 -4.12115e-015 0.411313 -1.57229e-006 22.9686 -1.64846e-014 -22.7824 -1.64846e-014 8.59245 -1.20343 0.219683 -2.4592 9.7208 4.0832 -29.0053 -2.13248 5.92825 -14.0592 0 -4.12115e-015 -63.8385 -1.29136 -46.9844 0 -25.7056 -1.64846e-014 -12.4744 -9.33254e-006 35.3452 0 -22.7824 0 -0.070299 -6.11382 -0.00769378 0 9.396 0 -0.594162 49.9042 -0.0800661 2.57572e-016 12.0408 0 -1.75906 -24.4403 -0.516993 
-0.276596 93.8117 -5.7371 0.387968 -0.374718 1.28492 7.9576 0 0 -2.33111 -0.706615 1.5771 0 -42.8504 5.15143e-016 5.87253 18.185 -9.37753 0 -41.644 0 -0.763833 -18.3622 -0.0771918 -7.9576 0 0 -3.60471 2.09773 -0.0863986 -2.06057e-015 -42.8504 0 1.73367 12.7775 3.62416 -2.06057e-015 -41.644 4.12115e-015 -1.00451 -14.7079 -2.05772 6.43929e-017 10.6024 -1.03029e-015 1.88356 -7.83207 0.452764 0 15.2424 0 -0.742909 -5.78042 0.287103 2.4592 9.7208 4.0832 28.8682 -1.34533 -3.22041 13.4792 0 8.2423e-015 56.3539 2.2434 2.2112 0 -28.0256 4.12115e-015 0.423689 -1.57229e-006 22.9566 0 -22.7824 -1.64846e-014 8.63373 -1.20231 0.220035 -2.4592 9.7208 4.0832 -29.0091 -2.13191 5.92524 -14.0592 0 4.12115e-015 -63.8262 -1.27512 -46.9787 0 -25.7056 0 -12.4678 -9.3326e-006 35.3325 0 -22.7824 0 -0.0986488 -6.11246 -0.00920695 5.15143e-016 9.396 8.2423e-015 -0.571765 49.9266 -0.0913902 -1.28786e-016 12.0408 0 -1.77014 -24.4897 -0.513564 
